<svg xmlns="http://www.w3.org/2000/svg" id="canvas" viewBox="258.976 201.292 940.148 256.223"><path d="M 267.17,348.90 C 268.92 348.05, 269.82 346.25, 271.73 342.50 C 273.63 338.74, 274.31 336.13, 276.69 330.14 C 279.06 324.15, 280.61 320.22, 283.60 312.55 C 286.58 304.88, 288.30 300.38, 291.61 291.79 C 294.93 283.20, 296.76 278.33, 300.18 269.62 C 303.60 260.91, 305.43 256.21, 308.71 248.24 C 312.00 240.28, 313.66 236.19, 316.59 229.79 C 319.53 223.38, 321.26 220.38, 323.40 216.23 C 325.55 212.09, 326.86 210.52, 327.34 209.05 C 327.82 207.58, 325.80 207.11, 325.80 208.89 C 325.81 210.68, 326.68 212.33, 327.36 217.96 C 328.05 223.60, 328.60 227.72, 329.22 237.07 C 329.83 246.43, 330.04 252.46, 330.43 264.74 C 330.82 277.02, 330.88 284.37, 331.17 298.48 C 331.47 312.59, 331.55 320.61, 331.89 335.28 C 332.23 349.96, 332.43 357.95, 332.87 371.85 C 333.32 385.75, 333.64 392.93, 334.13 404.77 C 334.61 416.60, 334.94 422.32, 335.29 431.02 C 335.65 439.72, 335.46 443.82, 335.89 448.25 C 336.31 452.68, 336.72 453.11, 337.42 453.16 C 338.12 453.22, 339.49 450.76, 339.38 448.53 C 339.27 446.29, 338.79 442.81, 336.89 442.00 C 334.99 441.19, 330.83 442.56, 329.90 444.48 C 328.97 446.39, 330.55 449.60, 332.23 451.57 C 333.92 453.54, 336.65 455.04, 338.33 454.34 C 340.00 453.64, 340.54 452.78, 340.62 448.07 C 340.70 443.37, 339.49 439.49, 338.73 430.80 C 337.98 422.11, 337.53 416.44, 336.85 404.63 C 336.17 392.82, 335.84 385.65, 335.33 371.76 C 334.82 357.88, 334.63 349.89, 334.32 335.23 C 334.02 320.56, 333.96 312.55, 333.82 298.44 C 333.69 284.33, 333.68 276.99, 333.63 264.68 C 333.57 252.38, 333.64 246.37, 333.56 236.91 C 333.48 227.45, 333.69 223.48, 333.22 217.39 C 332.75 211.29, 333.12 208.88, 331.21 206.44 C 329.30 204.00, 326.26 203.73, 323.66 205.17 C 321.07 206.60, 320.47 209.06, 318.24 213.63 C 316.00 218.21, 315.11 221.40, 312.48 228.03 C 309.85 234.66, 308.25 238.74, 305.08 246.78 C 301.92 254.82, 300.10 259.53, 296.66 268.23 C 293.21 276.93, 291.35 281.79, 287.86 290.29 C 284.36 298.79, 282.50 303.22, 279.19 310.72 C 275.88 318.22, 274.04 322.03, 271.30 327.80 C 268.56 333.56, 267.15 335.76, 265.48 339.54 C 263.82 343.33, 262.66 344.87, 262.99 346.74 C 263.33 348.61, 265.42 349.75, 267.17 348.90" style="stroke: black; fill: black;"/><path d="M 262.68,361.35 C 263.66 362.72, 264.61 363.96, 267.53 364.03 C 270.45 364.11, 272.38 362.97, 277.27 361.72 C 282.17 360.47, 285.40 359.72, 292.00 357.77 C 298.60 355.82, 302.77 354.61, 310.26 351.97 C 317.75 349.33, 321.99 347.68, 329.45 344.58 C 336.91 341.47, 340.87 339.57, 347.55 336.45 C 354.23 333.33, 357.64 331.57, 362.87 328.97 C 368.10 326.38, 370.97 325.17, 373.70 323.48 C 376.42 321.79, 376.35 320.45, 376.51 320.54 C 376.67 320.63, 375.23 320.75, 374.52 323.92 C 373.80 327.09, 373.70 330.05, 372.96 336.38 C 372.21 342.72, 371.41 347.31, 370.78 355.59 C 370.15 363.87, 369.68 369.19, 369.80 377.78 C 369.92 386.37, 370.11 391.18, 371.39 398.54 C 372.67 405.90, 373.44 409.57, 376.21 414.59 C 378.98 419.61, 380.98 422.09, 385.25 423.65 C 389.52 425.20, 392.68 424.72, 397.56 422.37 C 402.44 420.02, 404.91 417.41, 409.66 411.89 C 414.40 406.37, 416.86 402.32, 421.29 394.77 C 425.72 387.22, 428.03 382.15, 431.80 374.14 C 435.57 366.13, 437.51 360.91, 440.15 354.73 C 442.80 348.55, 444.65 345.81, 445.02 343.26 C 445.39 340.72, 442.75 340.24, 442.00 342.00 C 441.26 343.76, 441.32 346.48, 441.31 352.06 C 441.31 357.65, 441.29 362.54, 441.97 369.94 C 442.65 377.33, 443.21 382.14, 444.71 389.05 C 446.21 395.97, 446.95 399.53, 449.49 404.52 C 452.03 409.52, 453.56 412.05, 457.43 414.03 C 461.30 416.00, 464.35 416.08, 468.85 414.40 C 473.35 412.73, 475.57 410.44, 479.94 405.65 C 484.31 400.86, 486.49 397.24, 490.68 390.44 C 494.88 383.65, 497.09 378.97, 500.91 371.67 C 504.74 364.36, 506.79 359.45, 509.80 353.92 C 512.81 348.39, 514.80 346.05, 515.95 344.02 C 517.10 342.00, 515.27 341.82, 515.55 343.78 C 515.83 345.74, 516.67 348.20, 517.35 353.82 C 518.03 359.43, 518.28 364.29, 518.94 371.86 C 519.60 379.44, 519.95 384.51, 520.64 391.70 C 521.34 398.89, 521.27 402.84, 522.43 407.82 C 523.59 412.81, 524.10 415.13, 526.44 416.64 C 528.77 418.15, 531.90 417.86, 534.12 415.37 C 536.34 412.89, 536.25 409.80, 537.54 404.20 C 538.83 398.59, 539.29 394.41, 540.56 387.36 C 541.83 380.31, 542.41 375.73, 543.89 368.94 C 545.36 362.15, 546.20 358.46, 547.94 353.39 C 549.67 348.33, 550.75 346.22, 552.57 343.61 C 554.39 341.01, 554.98 340.98, 557.03 340.36 C 559.09 339.73, 559.77 340.10, 562.84 340.48 C 565.90 340.87, 567.96 341.52, 572.35 342.28 C 576.73 343.05, 579.49 343.75, 584.78 344.30 C 590.07 344.86, 593.18 345.21, 598.80 345.06 C 604.41 344.91, 607.52 344.61, 612.86 343.54 C 618.19 342.48, 621.04 341.65, 625.48 339.73 C 629.93 337.81, 632.57 336.83, 635.08 333.93 C 637.60 331.02, 638.45 328.46, 638.07 325.20 C 637.68 321.94, 636.25 319.12, 633.15 317.63 C 630.06 316.13, 627.13 316.26, 622.58 317.72 C 618.02 319.19, 615.26 320.93, 610.37 324.96 C 605.49 328.99, 602.66 331.90, 598.14 337.85 C 593.62 343.80, 591.14 347.81, 587.78 354.73 C 584.43 361.64, 582.90 365.84, 581.37 372.45 C 579.85 379.06, 579.42 382.56, 580.16 387.78 C 580.91 392.99, 581.93 396.01, 585.11 398.50 C 588.29 401.00, 591.55 401.38, 596.07 400.26 C 600.60 399.13, 603.11 397.11, 607.74 392.86 C 612.37 388.62, 614.85 385.33, 619.23 379.03 C 623.62 372.72, 625.98 368.27, 629.68 361.33 C 633.38 354.39, 635.37 349.86, 637.72 344.33 C 640.08 338.80, 641.58 336.10, 641.46 333.69 C 641.34 331.27, 638.44 330.58, 637.14 332.27 C 635.84 333.95, 635.44 336.70, 634.98 342.12 C 634.52 347.53, 634.27 352.20, 634.84 359.34 C 635.40 366.48, 635.85 371.14, 637.78 377.81 C 639.71 384.48, 640.82 388.11, 644.50 392.67 C 648.17 397.23, 650.81 399.38, 656.15 400.61 C 661.49 401.83, 664.91 401.37, 671.21 398.79 C 677.50 396.21, 680.95 393.70, 687.62 387.71 C 694.29 381.73, 697.91 377.54, 704.54 368.88 C 711.17 360.21, 714.71 354.68, 720.77 344.39 C 726.83 334.10, 729.93 327.96, 734.82 317.43 C 739.72 306.89, 741.99 301.10, 745.25 291.73 C 748.52 282.37, 749.74 277.82, 751.16 270.61 C 752.57 263.40, 753.15 260.45, 752.34 255.69 C 751.53 250.92, 750.27 248.54, 747.11 246.79 C 743.95 245.04, 740.70 245.26, 736.55 246.94 C 732.40 248.62, 730.06 250.81, 726.38 255.18 C 722.70 259.56, 720.71 262.71, 718.15 268.82 C 715.59 274.93, 714.32 278.72, 713.58 285.75 C 712.85 292.77, 712.89 296.79, 714.49 303.95 C 716.09 311.11, 717.68 314.89, 721.60 321.57 C 725.51 328.24, 728.36 331.39, 734.05 337.31 C 739.75 343.23, 743.46 345.89, 750.07 351.16 C 756.68 356.43, 760.66 358.84, 767.11 363.65 C 773.57 368.47, 777.13 370.74, 782.34 375.23 C 787.54 379.72, 790.05 382.02, 793.13 386.10 C 796.21 390.18, 797.07 392.10, 797.72 395.63 C 798.37 399.17, 798.16 400.47, 796.38 403.79 C 794.60 407.11, 793.02 408.95, 788.82 412.24 C 784.62 415.52, 781.41 417.41, 775.39 420.23 C 769.37 423.05, 765.32 424.46, 758.70 426.32 C 752.08 428.18, 748.07 428.93, 742.28 429.53 C 736.48 430.14, 733.35 429.79, 729.73 429.35 C 726.10 428.92, 725.19 428.27, 724.16 427.35 C 723.12 426.42, 723.49 426.81, 724.57 424.73 C 725.64 422.65, 726.29 420.68, 729.55 416.96 C 732.80 413.24, 735.35 410.67, 740.83 406.15 C 746.31 401.62, 749.94 399.04, 756.95 394.32 C 763.96 389.60, 768.17 387.17, 775.87 382.56 C 783.57 377.96, 787.91 375.69, 795.46 371.29 C 803.01 366.89, 806.99 364.72, 813.60 360.57 C 820.21 356.42, 823.43 354.36, 828.51 350.54 C 833.59 346.72, 835.89 345.02, 839.00 341.46 C 842.11 337.91, 843.64 336.12, 844.05 332.78 C 844.47 329.44, 843.40 327.06, 841.07 324.77 C 838.74 322.49, 836.14 321.03, 832.41 321.36 C 828.67 321.69, 826.25 323.33, 822.41 326.42 C 818.57 329.51, 816.49 331.73, 813.22 336.81 C 809.94 341.88, 808.29 345.20, 806.04 351.81 C 803.79 358.42, 802.76 362.51, 801.95 369.85 C 801.15 377.19, 801.08 381.53, 802.00 388.50 C 802.92 395.48, 803.87 399.27, 806.56 404.71 C 809.26 410.14, 811.18 412.85, 815.49 415.67 C 819.80 418.49, 822.90 419.30, 828.13 418.79 C 833.36 418.29, 836.36 416.83, 841.65 413.16 C 846.95 409.49, 849.63 406.47, 854.61 400.44 C 859.59 394.41, 862.12 390.25, 866.56 383.01 C 871.00 375.76, 873.19 371.16, 876.79 364.22 C 880.39 357.28, 882.42 353.10, 884.55 348.33 C 886.68 343.56, 887.49 341.63, 887.45 340.37 C 887.40 339.12, 884.96 339.42, 884.33 342.06 C 883.70 344.70, 884.31 347.74, 884.29 353.57 C 884.26 359.41, 884.06 364.16, 884.19 371.24 C 884.31 378.31, 884.36 382.77, 884.91 388.95 C 885.46 395.14, 885.17 398.23, 886.94 402.17 C 888.72 406.10, 890.61 408.08, 893.80 408.63 C 896.98 409.18, 899.43 408.12, 902.86 404.92 C 906.30 401.73, 907.56 398.51, 910.98 392.68 C 914.40 386.84, 916.34 382.54, 919.96 375.76 C 923.58 368.97, 925.80 364.38, 929.08 358.77 C 932.37 353.16, 934.64 350.47, 936.38 347.71 C 938.12 344.95, 937.47 344.34, 937.79 344.97 C 938.11 345.60, 937.71 346.92, 937.99 350.87 C 938.27 354.83, 938.60 358.57, 939.20 364.73 C 939.79 370.90, 939.93 375.21, 940.97 381.69 C 942.01 388.17, 942.45 391.84, 944.41 397.12 C 946.38 402.40, 947.35 405.32, 950.80 408.08 C 954.24 410.83, 957.14 411.73, 961.65 410.90 C 966.15 410.07, 968.60 408.19, 973.33 403.92 C 978.07 399.66, 980.46 396.34, 985.31 389.58 C 990.17 382.82, 992.79 378.19, 997.61 370.12 C 1002.42 362.06, 1005.00 356.97, 1009.39 349.26 C 1013.77 341.54, 1015.95 337.23, 1019.53 331.53 C 1023.11 325.82, 1025.11 323.50, 1027.27 320.72 C 1029.43 317.94, 1029.56 317.55, 1030.32 317.64 C 1031.08 317.72, 1030.17 318.58, 1031.06 321.15 C 1031.95 323.71, 1033.12 325.78, 1034.78 330.45 C 1036.43 335.12, 1037.55 338.40, 1039.33 344.49 C 1041.11 350.57, 1042.22 354.31, 1043.69 360.87 C 1045.16 367.44, 1045.92 371.14, 1046.69 377.32 C 1047.46 383.49, 1047.74 386.77, 1047.55 391.77 C 1047.36 396.76, 1046.84 399.11, 1045.72 402.31 C 1044.61 405.51, 1043.62 406.41, 1041.98 407.77 C 1040.33 409.14, 1039.57 409.12, 1037.51 409.13 C 1035.45 409.15, 1034.04 408.87, 1031.66 407.86 C 1029.27 406.85, 1027.65 405.83, 1025.60 404.09 C 1023.55 402.35, 1022.49 401.02, 1021.41 399.16 C 1020.32 397.29, 1019.98 396.59, 1020.16 394.76 C 1020.34 392.94, 1020.28 392.07, 1022.30 390.05 C 1024.32 388.03, 1025.92 386.70, 1030.27 384.65 C 1034.61 382.60, 1037.69 381.66, 1044.01 379.80 C 1050.34 377.93, 1054.34 377.21, 1061.89 375.31 C 1069.43 373.42, 1073.83 372.61, 1081.75 370.32 C 1089.68 368.04, 1094.02 366.85, 1101.52 363.89 C 1109.01 360.93, 1112.94 359.23, 1119.22 355.52 C 1125.50 351.81, 1128.47 349.68, 1132.93 345.33 C 1137.39 340.99, 1139.33 338.50, 1141.52 333.81 C 1143.71 329.12, 1144.50 326.23, 1143.87 321.88 C 1143.25 317.52, 1141.78 314.68, 1138.41 312.01 C 1135.04 309.35, 1131.91 308.44, 1127.02 308.55 C 1122.14 308.66, 1118.94 309.61, 1113.99 312.58 C 1109.04 315.54, 1106.20 317.99, 1102.29 323.38 C 1098.39 328.76, 1096.35 332.44, 1094.44 339.51 C 1092.53 346.57, 1091.91 351.00, 1092.74 358.69 C 1093.57 366.38, 1094.72 370.87, 1098.61 377.98 C 1102.50 385.09, 1105.50 388.79, 1112.20 394.23 C 1118.91 399.67, 1123.25 402.16, 1132.14 405.16 C 1141.03 408.16, 1147.30 408.61, 1156.66 409.22 C 1166.02 409.84, 1171.41 409.08, 1178.93 408.23 C 1186.45 407.39, 1191.34 406.43, 1194.24 405.01 C 1197.14 403.58, 1196.56 401.25, 1193.41 401.12 C 1190.26 400.99, 1185.79 403.52, 1178.49 404.35 C 1171.19 405.19, 1165.94 405.86, 1156.91 405.31 C 1147.88 404.75, 1141.79 404.40, 1133.34 401.58 C 1124.90 398.75, 1120.89 396.32, 1114.68 391.20 C 1108.48 386.08, 1105.80 382.58, 1102.32 375.98 C 1098.84 369.39, 1097.88 365.26, 1097.28 358.25 C 1096.67 351.23, 1097.36 347.18, 1099.28 340.90 C 1101.20 334.62, 1103.26 331.35, 1106.86 326.84 C 1110.46 322.34, 1113.22 320.52, 1117.28 318.35 C 1121.35 316.19, 1123.87 316.06, 1127.17 316.00 C 1130.47 315.95, 1131.83 316.71, 1133.78 318.09 C 1135.73 319.48, 1136.47 320.27, 1136.92 322.93 C 1137.36 325.59, 1137.53 327.63, 1136.00 331.39 C 1134.48 335.15, 1133.12 337.69, 1129.29 341.74 C 1125.46 345.79, 1122.74 348.00, 1116.87 351.63 C 1111.00 355.26, 1107.19 357.00, 1099.93 359.89 C 1092.67 362.79, 1088.40 363.97, 1080.57 366.12 C 1072.74 368.27, 1068.39 369.00, 1060.80 370.65 C 1053.20 372.30, 1049.22 372.82, 1042.59 374.36 C 1035.95 375.91, 1032.80 376.42, 1027.63 378.36 C 1022.46 380.29, 1020.05 381.10, 1016.72 384.05 C 1013.39 387.00, 1011.84 389.21, 1010.98 393.10 C 1010.13 396.98, 1010.83 399.74, 1012.44 403.48 C 1014.04 407.21, 1015.86 409.03, 1019.02 411.76 C 1022.19 414.49, 1024.36 415.82, 1028.27 417.11 C 1032.19 418.41, 1034.75 418.93, 1038.60 418.24 C 1042.46 417.55, 1044.79 416.43, 1047.54 413.65 C 1050.28 410.86, 1051.13 408.68, 1052.32 404.32 C 1053.51 399.96, 1053.52 397.39, 1053.47 391.84 C 1053.42 386.30, 1052.95 383.03, 1052.06 376.61 C 1051.18 370.19, 1050.38 366.48, 1049.05 359.74 C 1047.71 353.00, 1046.81 349.23, 1045.37 342.92 C 1043.94 336.61, 1043.34 333.32, 1041.86 328.19 C 1040.38 323.06, 1040.23 320.35, 1037.96 317.28 C 1035.70 314.20, 1033.54 312.88, 1030.51 312.81 C 1027.49 312.75, 1025.85 313.68, 1022.85 316.94 C 1019.85 320.21, 1018.92 323.08, 1015.51 329.14 C 1012.10 335.20, 1010.09 339.47, 1005.79 347.24 C 1001.49 355.00, 998.88 360.05, 994.02 367.95 C 989.15 375.84, 986.35 380.38, 981.47 386.73 C 976.58 393.07, 973.83 396.08, 969.61 399.68 C 965.39 403.28, 963.30 404.03, 960.37 404.73 C 957.45 405.43, 957.01 405.15, 954.99 403.20 C 952.96 401.26, 951.82 399.50, 950.26 395.01 C 948.70 390.52, 948.04 386.93, 947.20 380.76 C 946.36 374.59, 946.52 370.37, 946.07 364.15 C 945.61 357.93, 946.15 354.21, 944.94 349.66 C 943.73 345.10, 942.67 342.58, 940.01 341.37 C 937.35 340.16, 934.82 340.69, 931.64 343.61 C 928.47 346.52, 927.45 350.03, 924.13 355.93 C 920.82 361.83, 918.74 366.39, 915.05 373.10 C 911.36 379.80, 909.13 384.03, 905.68 389.44 C 902.24 394.86, 900.06 397.37, 897.83 400.17 C 895.61 402.96, 895.48 403.47, 894.56 403.42 C 893.64 403.38, 893.94 402.93, 893.24 399.92 C 892.55 396.92, 891.59 394.15, 891.08 388.41 C 890.58 382.66, 890.69 378.14, 890.71 371.19 C 890.74 364.24, 891.10 359.62, 891.19 353.65 C 891.29 347.67, 892.43 344.53, 891.18 341.34 C 889.93 338.15, 887.29 336.79, 884.94 337.70 C 882.59 338.60, 881.89 340.99, 879.41 345.87 C 876.93 350.76, 875.89 355.15, 872.55 362.10 C 869.21 369.05, 867.04 373.60, 862.70 380.64 C 858.37 387.68, 855.70 391.69, 850.88 397.30 C 846.06 402.91, 843.25 405.53, 838.59 408.68 C 833.92 411.82, 831.53 412.58, 827.54 413.02 C 823.55 413.46, 821.88 413.01, 818.65 410.86 C 815.43 408.72, 813.72 406.90, 811.40 402.29 C 809.08 397.68, 807.92 394.20, 807.04 387.83 C 806.17 381.45, 806.17 377.26, 807.01 370.44 C 807.86 363.62, 808.94 359.67, 811.27 353.72 C 813.60 347.76, 815.45 344.75, 818.66 340.66 C 821.88 336.57, 824.24 335.18, 827.34 333.28 C 830.44 331.39, 832.24 331.87, 834.17 331.18 C 836.10 330.49, 836.44 329.80, 837.00 329.84 C 837.56 329.87, 837.54 329.82, 836.97 331.36 C 836.40 332.89, 836.47 334.43, 834.16 337.50 C 831.85 340.57, 830.00 342.79, 825.43 346.70 C 820.86 350.60, 817.71 352.79, 811.31 357.03 C 804.92 361.27, 800.96 363.47, 793.47 367.89 C 785.97 372.31, 781.62 374.58, 773.84 379.12 C 766.05 383.66, 761.79 386.04, 754.53 390.59 C 747.26 395.14, 743.48 397.51, 737.51 401.87 C 731.54 406.23, 728.67 408.34, 724.67 412.40 C 720.66 416.47, 718.55 418.32, 717.49 422.18 C 716.43 426.04, 717.07 428.98, 719.35 431.70 C 721.62 434.43, 724.15 435.12, 728.87 435.80 C 733.59 436.47, 736.71 435.96, 742.96 435.08 C 749.21 434.20, 753.19 433.37, 760.13 431.39 C 767.07 429.42, 771.21 428.12, 777.67 425.22 C 784.14 422.32, 787.61 420.63, 792.44 416.90 C 797.27 413.17, 799.62 411.04, 801.82 406.57 C 804.03 402.10, 804.38 399.28, 803.47 394.55 C 802.55 389.81, 800.89 387.47, 797.26 382.90 C 793.62 378.33, 790.82 376.24, 785.29 371.71 C 779.77 367.18, 776.15 365.00, 769.62 360.25 C 763.09 355.49, 759.15 353.10, 752.64 347.93 C 746.13 342.76, 742.54 340.12, 737.09 334.40 C 731.64 328.69, 729.01 325.65, 725.41 319.36 C 721.81 313.07, 720.43 309.56, 719.09 302.97 C 717.75 296.37, 717.82 292.71, 718.72 286.37 C 719.62 280.04, 721.02 276.59, 723.60 271.27 C 726.19 265.95, 728.42 263.31, 731.63 259.75 C 734.85 256.20, 737.13 255.02, 739.68 253.51 C 742.23 252.00, 742.87 251.61, 744.37 252.21 C 745.88 252.82, 746.66 252.99, 747.22 256.53 C 747.78 260.07, 748.21 263.10, 747.18 269.92 C 746.16 276.75, 745.13 281.42, 742.10 290.67 C 739.07 299.91, 736.85 305.71, 732.04 316.14 C 727.24 326.57, 724.14 332.68, 718.09 342.80 C 712.03 352.92, 708.43 358.37, 701.79 366.73 C 695.15 375.09, 691.38 379.09, 684.90 384.61 C 678.43 390.13, 674.93 392.16, 669.41 394.34 C 663.90 396.53, 661.47 396.52, 657.34 395.53 C 653.20 394.54, 651.56 393.22, 648.74 389.38 C 645.92 385.55, 644.67 382.45, 643.23 376.37 C 641.79 370.28, 641.75 365.74, 641.53 358.96 C 641.31 352.19, 642.02 347.80, 642.13 342.50 C 642.24 337.19, 643.26 334.63, 642.08 332.42 C 640.91 330.21, 638.24 329.53, 636.26 331.45 C 634.28 333.38, 634.41 336.53, 632.19 342.03 C 629.96 347.53, 628.60 352.18, 625.14 358.96 C 621.68 365.74, 619.17 370.05, 614.89 375.93 C 610.60 381.81, 607.83 384.76, 603.70 388.35 C 599.57 391.94, 597.14 392.88, 594.24 393.89 C 591.34 394.90, 590.85 394.80, 589.20 393.41 C 587.55 392.03, 586.54 390.92, 585.99 386.95 C 585.45 382.99, 585.21 379.58, 586.47 373.57 C 587.72 367.56, 589.09 363.39, 592.28 356.92 C 595.46 350.45, 597.97 346.55, 602.39 341.21 C 606.80 335.87, 609.82 333.33, 614.36 330.22 C 618.90 327.12, 621.81 326.67, 625.08 325.68 C 628.35 324.68, 629.45 325.34, 630.71 325.24 C 631.97 325.15, 631.76 324.68, 631.38 325.20 C 630.99 325.72, 630.59 326.26, 628.78 327.84 C 626.97 329.41, 625.78 331.24, 622.32 333.08 C 618.86 334.92, 616.20 335.97, 611.47 337.04 C 606.75 338.12, 603.84 338.42, 598.69 338.45 C 593.53 338.49, 590.67 338.01, 585.71 337.21 C 580.76 336.41, 578.33 335.46, 573.91 334.46 C 569.48 333.47, 567.52 332.48, 563.57 332.24 C 559.62 332.00, 557.45 331.71, 554.15 333.26 C 550.85 334.81, 549.40 336.31, 547.07 339.98 C 544.74 343.65, 544.19 346.07, 542.49 351.63 C 540.78 357.18, 540.14 360.84, 538.54 367.74 C 536.94 374.64, 536.07 379.17, 534.51 386.13 C 532.95 393.09, 532.06 397.34, 530.73 402.55 C 529.40 407.76, 528.07 409.92, 527.86 412.19 C 527.66 414.45, 529.58 414.99, 529.72 413.88 C 529.85 412.77, 529.25 411.17, 528.53 406.63 C 527.82 402.08, 526.90 398.18, 526.15 391.14 C 525.41 384.09, 525.33 379.02, 524.80 371.40 C 524.26 363.78, 524.31 359.13, 523.47 353.03 C 522.64 346.93, 522.96 343.56, 520.63 340.91 C 518.31 338.26, 514.96 337.68, 511.84 339.77 C 508.73 341.87, 508.08 345.47, 505.04 351.40 C 502.00 357.34, 500.35 362.18, 496.62 369.44 C 492.89 376.71, 490.58 381.28, 486.40 387.74 C 482.23 394.21, 479.73 397.58, 475.75 401.75 C 471.78 405.93, 469.63 407.27, 466.54 408.64 C 463.45 410.01, 462.69 409.94, 460.30 408.60 C 457.91 407.27, 456.62 406.10, 454.60 401.97 C 452.58 397.83, 451.45 394.43, 450.18 387.93 C 448.92 381.42, 448.74 376.66, 448.29 369.45 C 447.83 362.24, 448.26 357.56, 447.92 351.87 C 447.59 346.18, 448.23 343.28, 446.61 341.00 C 445.00 338.73, 442.09 338.13, 439.84 340.49 C 437.59 342.85, 437.76 346.43, 435.35 352.79 C 432.93 359.15, 431.36 364.35, 427.76 372.27 C 424.16 380.20, 421.76 385.19, 417.36 392.43 C 412.96 399.67, 410.24 403.50, 405.77 408.48 C 401.31 413.46, 398.74 415.34, 395.02 417.31 C 391.30 419.28, 390.04 419.38, 387.18 418.34 C 384.33 417.30, 382.97 416.24, 380.73 412.11 C 378.48 407.99, 377.22 404.60, 375.94 397.72 C 374.66 390.85, 374.34 386.07, 374.33 377.75 C 374.31 369.42, 374.91 364.17, 375.88 356.09 C 376.85 348.01, 377.98 343.66, 379.18 337.34 C 380.38 331.03, 382.00 328.55, 381.89 324.53 C 381.78 320.51, 380.85 318.68, 378.62 317.24 C 376.39 315.80, 374.41 315.94, 370.74 317.33 C 367.07 318.71, 365.30 321.18, 360.26 324.18 C 355.22 327.17, 352.04 329.04, 345.54 332.28 C 339.03 335.53, 335.10 337.41, 327.74 340.42 C 320.38 343.43, 316.16 345.02, 308.73 347.33 C 301.29 349.64, 297.11 350.63, 290.55 351.98 C 283.99 353.32, 280.71 353.57, 275.91 354.04 C 271.12 354.50, 269.24 353.68, 266.57 354.30 C 263.91 354.93, 263.38 355.75, 262.60 357.16 C 261.82 358.56, 261.69 359.97, 262.68 361.35" style="stroke: black; fill: black;"/></svg>