<?xml version="1.0" encoding="UTF-8"?>
<!DOCTYPE svg PUBLIC "-//W3C//DTD SVG 1.1//EN" "http://www.w3.org/Graphics/SVG/1.1/DTD/svg11.dtd">
<!-- Creator: CorelDRAW X7 -->
<svg xmlns="http://www.w3.org/2000/svg" xml:space="preserve" width="163.963mm" height="89.2477mm" version="1.1" style="shape-rendering:geometricPrecision; text-rendering:geometricPrecision; image-rendering:optimizeQuality; fill-rule:evenodd; clip-rule:evenodd"
viewBox="0 0 14353 7812"
 xmlns:xlink="http://www.w3.org/1999/xlink">
 <defs>
  <style type="text/css">
   <![CDATA[
    .fil2 {fill:url(#id0)}
    .fil8 {fill:url(#id1)}
    .fil6 {fill:url(#id2)}
    .fil5 {fill:url(#id3)}
    .fil0 {fill:url(#id4)}
    .fil10 {fill:url(#id5)}
    .fil1 {fill:url(#id6)}
    .fil4 {fill:url(#id7)}
    .fil7 {fill:url(#id8)}
    .fil3 {fill:url(#id9)}
    .fil12 {fill:url(#id10)}
    .fil9 {fill:url(#id11)}
    .fil11 {fill:url(#id12)}
   ]]>
  </style>
  <linearGradient id="id0" gradientUnits="userSpaceOnUse" x1="1124.54" y1="6788.8" x2="4592.65" y2="6788.8">
   <stop offset="0" style="stop-opacity:1; stop-color:#211E20"/>
   <stop offset="0.490196" style="stop-opacity:1; stop-color:red"/>
   <stop offset="1" style="stop-opacity:1; stop-color:#FFEA00"/>
  </linearGradient>
  <linearGradient id="id1" gradientUnits="userSpaceOnUse" x1="12284.7" y1="1483.92" x2="13201.1" y2="1483.92">
   <stop offset="0" style="stop-opacity:1; stop-color:#1F1F1F"/>
   <stop offset="0.490196" style="stop-opacity:1; stop-color:red"/>
   <stop offset="1" style="stop-opacity:1; stop-color:#FFEA00"/>
  </linearGradient>
  <linearGradient id="id2" gradientUnits="userSpaceOnUse" xlink:href="#id0" x1="-0.0437684" y1="5278.36" x2="2239.11" y2="5278.36">
  </linearGradient>
  <linearGradient id="id3" gradientUnits="userSpaceOnUse" x1="3865.96" y1="4400.36" x2="5901.42" y2="4400.36">
   <stop offset="0" style="stop-opacity:1; stop-color:#FAF8F9"/>
   <stop offset="0.490196" style="stop-opacity:1; stop-color:red"/>
   <stop offset="1" style="stop-opacity:1; stop-color:#FFEA00"/>
  </linearGradient>
  <linearGradient id="id4" gradientUnits="userSpaceOnUse" xlink:href="#id0" x1="427.092" y1="4414.14" x2="10022.1" y2="4414.14">
  </linearGradient>
  <linearGradient id="id5" gradientUnits="userSpaceOnUse" x1="10843" y1="927.636" x2="11162.8" y2="927.636">
   <stop offset="0" style="stop-opacity:1; stop-color:#222021"/>
   <stop offset="0.490196" style="stop-opacity:1; stop-color:red"/>
   <stop offset="1" style="stop-opacity:1; stop-color:#FFEA00"/>
  </linearGradient>
  <linearGradient id="id6" gradientUnits="userSpaceOnUse" x1="8411.4" y1="1772.81" x2="10431.2" y2="1772.81">
   <stop offset="0" style="stop-opacity:1; stop-color:#221E1F"/>
   <stop offset="0.490196" style="stop-opacity:1; stop-color:red"/>
   <stop offset="1" style="stop-opacity:1; stop-color:#FFEA00"/>
  </linearGradient>
  <linearGradient id="id7" gradientUnits="userSpaceOnUse" xlink:href="#id6" x1="469.731" y1="4087.55" x2="3364.47" y2="4087.55">
  </linearGradient>
  <linearGradient id="id8" gradientUnits="userSpaceOnUse" xlink:href="#id1" x1="13013.8" y1="1984.3" x2="14352.8" y2="1984.3">
  </linearGradient>
  <linearGradient id="id9" gradientUnits="userSpaceOnUse" xlink:href="#id0" x1="9458.05" y1="869.276" x2="11188.1" y2="869.276">
  </linearGradient>
  <linearGradient id="id10" gradientUnits="userSpaceOnUse" x1="12591.1" y1="2575.15" x2="13096.5" y2="2575.15">
   <stop offset="0" style="stop-opacity:1; stop-color:#1D1D1D"/>
   <stop offset="0.490196" style="stop-opacity:1; stop-color:red"/>
   <stop offset="1" style="stop-opacity:1; stop-color:#FFEA00"/>
  </linearGradient>
  <linearGradient id="id11" gradientUnits="userSpaceOnUse" xlink:href="#id0" x1="11605" y1="1987.61" x2="12313.7" y2="1987.61">
  </linearGradient>
  <linearGradient id="id12" gradientUnits="userSpaceOnUse" xlink:href="#id1" x1="11318.6" y1="1371.93" x2="11804.6" y2="1371.93">
  </linearGradient>
 </defs>
 <g id="Layer_x0020_1">
  <metadata id="CorelCorpID_0Corel-Layer"/>
  <g id="_1941350137360">
   <path class="fil0" d="M5901 7179c-265,-43 -622,-266 -805,-400 -1344,-981 -1640,-2788 -623,-4166 232,-313 842,-880 1405,-991 -302,226 -328,106 -849,611 -1078,1045 -1209,2685 -355,3923 373,542 735,722 1227,1023zm3045 -234c-52,-49 -1,-15 -70,-44 -63,-26 2,-3 -47,-14 -5,-1 -113,-7 -120,-8 -516,-29 -227,-17 -619,147 -1484,622 -2967,-469 -3348,-1788 -540,-1867 801,-3795 2823,-3486 637,97 1072,384 1451,749 612,589 273,955 1006,1150 -25,-216 -197,-631 -297,-812 -392,-711 -967,-1261 -1823,-1561 -1386,-488 -2650,23 -3416,743 -1257,1180 -1385,3400 15,4748 360,347 916,723 1397,814 -413,-27 -949,-314 -1240,-503 -378,-244 -613,-500 -877,-857 -233,-313 -441,-769 -535,-1231 -133,-653 -36,-937 48,-1553 -176,215 -243,744 -262,1072 -24,421 25,843 87,1242 -112,-57 -173,-121 -299,-192 -339,-190 -677,-319 -1086,-375 -667,-92 -1119,69 -1259,637 -47,193 -77,713 -3,875 90,196 353,368 649,266 560,-191 435,-1047 -319,-951 119,-380 517,-523 1012,-432 527,97 1015,500 1328,869l324 390c112,130 227,220 379,337 997,768 1920,532 2968,530 641,-1 1182,-177 1699,-476 170,-98 294,-227 434,-286z"/>
   <path class="fil1" d="M8411 1400c68,89 307,211 406,283 644,469 708,796 967,1100 97,-53 613,-556 641,-682 55,-243 -291,-483 -558,-752 -760,-765 -623,-814 -1456,51z"/>
   <path class="fil2" d="M2525 6736c395,497 921,976 1603,1065 89,12 294,21 383,-7 132,-41 31,-4 82,-43 -403,-84 -669,-261 -937,-467 -275,-211 -443,-413 -665,-711 -453,-611 -1070,-1037 -1866,-674 144,41 239,29 360,118 341,251 335,703 -29,961 333,-4 621,-310 512,-768 178,110 431,367 557,526z"/>
   <path class="fil3" d="M9458 825c119,130 824,856 931,914l573 -579c-682,140 -131,-723 226,-441 -21,-166 -45,-161 -142,-248 -261,-235 -411,-556 -743,-450 -115,36 -757,690 -845,804z"/>
   <path class="fil4" d="M2902 5304c46,-898 -78,-1849 462,-2433 -221,80 -517,374 -640,552 -168,245 -258,559 -256,932 -364,-86 -555,-217 -1020,-237 -249,-11 -690,53 -891,190l-87 81c519,-18 1023,40 1467,212 527,203 639,384 965,703z"/>
   <path class="fil5" d="M5901 7179c-492,-301 -854,-481 -1227,-1023 -854,-1238 -723,-2878 355,-3923 521,-505 547,-385 849,-611 -563,111 -1173,678 -1405,991 -1017,1378 -721,3185 623,4166 183,134 540,357 805,400z"/>
   <path class="fil6" d="M44 5967c116,-137 206,-571 792,-854 541,-261 845,-136 1403,-83 -300,-294 -954,-605 -1494,-340 -446,218 -888,892 -701,1277z"/>
   <path class="fil7" d="M13014 1964c129,125 417,109 496,198 36,40 128,409 160,504 99,-141 94,-382 186,-525 148,-52 380,-75 497,-164l-506 -149 -164 -525c-240,407 145,498 -669,661z"/>
   <path class="fil8" d="M12285 1480c57,45 75,46 162,68 58,16 131,21 177,69 60,64 57,248 132,334 136,-449 39,-304 349,-418l96 -47 -340 -108 -105 -361c-67,93 -79,284 -128,341 -42,48 -276,99 -343,122z"/>
   <path class="fil9" d="M11873 1899l-268 76 264 99 83 267c45,-55 32,-32 59,-117 49,-156 13,-141 168,-186l118 -46c4,-2 11,-7 17,-11l-266 -87c-9,-43 -21,-97 -33,-133 -10,-30 -12,-39 -26,-64l-46 -62 -70 264z"/>
   <path class="fil10" d="M10857 1067c191,96 375,-180 280,-275 -89,-88 -358,78 -280,275z"/>
   <path class="fil11" d="M11319 1383l172 50 68 191 72 -193 174 -48c-6,-3 -16,-19 -20,-13 -4,6 -15,-11 -20,-14 -6,-3 -34,-17 -42,-21 -122,-58 -77,20 -149,-215 -2,6 -9,7 -11,19 -2,11 -11,14 -13,19l-19 41c-45,109 9,80 -113,131l-99 53z"/>
   <path class="fil12" d="M12784 2512l-193 60 198 64 52 194c111,-191 -8,-183 256,-240 -108,-94 -110,-30 -173,-91 -42,-39 -48,-125 -77,-178l-63 191z"/>
  </g>
 </g>
</svg>
